<mxfile host="Electron" agent="Mozilla/5.0 (Windows NT 10.0; Win64; x64) AppleWebKit/537.36 (KHTML, like Gecko) draw.io/26.2.2 Chrome/134.0.6998.178 Electron/35.1.2 Safari/537.36" version="26.2.2">
  <diagram name="Pagina-1" id="6oyDb3321JNbO1oDYQqy">
    <mxGraphModel dx="1428" dy="841" grid="1" gridSize="10" guides="1" tooltips="1" connect="1" arrows="1" fold="1" page="1" pageScale="1" pageWidth="827" pageHeight="1169" math="1" shadow="0">
      <root>
        <mxCell id="0" />
        <mxCell id="1" parent="0" />
        <mxCell id="e3l9YDXnS1hUj3nuyqTJ-1" value="" style="endArrow=classic;html=1;rounded=0;" parent="1" edge="1">
          <mxGeometry width="50" height="50" relative="1" as="geometry">
            <mxPoint x="360" y="360" as="sourcePoint" />
            <mxPoint x="360" y="120" as="targetPoint" />
          </mxGeometry>
        </mxCell>
        <mxCell id="e3l9YDXnS1hUj3nuyqTJ-2" value="" style="endArrow=classic;html=1;rounded=0;" parent="1" edge="1">
          <mxGeometry width="50" height="50" relative="1" as="geometry">
            <mxPoint x="360" y="360" as="sourcePoint" />
            <mxPoint x="640" y="360" as="targetPoint" />
          </mxGeometry>
        </mxCell>
        <mxCell id="e3l9YDXnS1hUj3nuyqTJ-3" value="" style="endArrow=classic;html=1;rounded=0;" parent="1" edge="1">
          <mxGeometry width="50" height="50" relative="1" as="geometry">
            <mxPoint x="360" y="360" as="sourcePoint" />
            <mxPoint x="240" y="480" as="targetPoint" />
          </mxGeometry>
        </mxCell>
        <mxCell id="e3l9YDXnS1hUj3nuyqTJ-4" value="" style="endArrow=classic;html=1;rounded=0;strokeColor=#FF0000;" parent="1" edge="1">
          <mxGeometry width="50" height="50" relative="1" as="geometry">
            <mxPoint x="360" y="360" as="sourcePoint" />
            <mxPoint x="360" y="230" as="targetPoint" />
          </mxGeometry>
        </mxCell>
        <mxCell id="e3l9YDXnS1hUj3nuyqTJ-5" value="$$\mathbf{B}$$" style="text;html=1;align=center;verticalAlign=middle;resizable=0;points=[];autosize=1;strokeColor=none;fillColor=none;fontColor=#FF0000;" parent="1" vertex="1">
          <mxGeometry x="330" y="280" width="110" height="30" as="geometry" />
        </mxCell>
        <mxCell id="e3l9YDXnS1hUj3nuyqTJ-6" value="" style="endArrow=classic;html=1;rounded=0;strokeColor=#3399FF;" parent="1" edge="1">
          <mxGeometry width="50" height="50" relative="1" as="geometry">
            <mxPoint x="440" y="360" as="sourcePoint" />
            <mxPoint x="510" y="360" as="targetPoint" />
          </mxGeometry>
        </mxCell>
        <mxCell id="e3l9YDXnS1hUj3nuyqTJ-7" value="" style="ellipse;whiteSpace=wrap;html=1;aspect=fixed;strokeColor=none;fillColor=#3399FF;" parent="1" vertex="1">
          <mxGeometry x="437" y="357.5" width="5" height="5" as="geometry" />
        </mxCell>
        <mxCell id="e3l9YDXnS1hUj3nuyqTJ-8" value="$$q$$" style="text;html=1;align=center;verticalAlign=middle;resizable=0;points=[];autosize=1;strokeColor=none;fillColor=none;fontColor=#3399FF;" parent="1" vertex="1">
          <mxGeometry x="409.5" y="357.5" width="60" height="30" as="geometry" />
        </mxCell>
        <mxCell id="e3l9YDXnS1hUj3nuyqTJ-9" value="$$x$$" style="text;html=1;align=center;verticalAlign=middle;resizable=0;points=[];autosize=1;strokeColor=none;fillColor=none;" parent="1" vertex="1">
          <mxGeometry x="600" y="320" width="60" height="30" as="geometry" />
        </mxCell>
        <mxCell id="e3l9YDXnS1hUj3nuyqTJ-10" value="$$y$$" style="text;html=1;align=center;verticalAlign=middle;resizable=0;points=[];autosize=1;strokeColor=none;fillColor=none;" parent="1" vertex="1">
          <mxGeometry x="220" y="480" width="60" height="30" as="geometry" />
        </mxCell>
        <mxCell id="e3l9YDXnS1hUj3nuyqTJ-11" value="$$z$$" style="text;html=1;align=center;verticalAlign=middle;resizable=0;points=[];autosize=1;strokeColor=none;fillColor=none;" parent="1" vertex="1">
          <mxGeometry x="349.5" y="100" width="60" height="30" as="geometry" />
        </mxCell>
        <mxCell id="e3l9YDXnS1hUj3nuyqTJ-13" value="$$\mathcal{R}$$" style="text;html=1;align=center;verticalAlign=middle;resizable=0;points=[];autosize=1;strokeColor=none;fillColor=none;" parent="1" vertex="1">
          <mxGeometry x="460" y="130" width="110" height="30" as="geometry" />
        </mxCell>
        <mxCell id="e3l9YDXnS1hUj3nuyqTJ-16" value="$$\mathbf{v}$$" style="text;html=1;align=center;verticalAlign=middle;resizable=0;points=[];autosize=1;strokeColor=none;fillColor=none;fontColor=#3399FF;" parent="1" vertex="1">
          <mxGeometry x="455" y="362.5" width="100" height="30" as="geometry" />
        </mxCell>
      </root>
    </mxGraphModel>
  </diagram>
</mxfile>
